<?xml version="1.0" encoding="UTF-8" standalone="no"?>
<svg viewBox="0 0 60 60" version="1.1" xmlns="http://www.w3.org/2000/svg" xmlns:xlink="http://www.w3.org/1999/xlink" xmlns:sketch="http://www.bohemiancoding.com/sketch/ns">
    <title>Slice 1</title>
    <description>Created with Sketch (http://www.bohemiancoding.com/sketch)</description>
    <defs></defs>
    <g id="Page-1" stroke="none" stroke-width="1" fill="none" fill-rule="evenodd" sketch:type="MSPage">
        <path d="M1,1 L59,1 L59,59 L1,59 L1,1 Z M59,45 L1,45 L59,45 Z M23.695,10.57 C20.556,10.57 17.972,12.87 17.492,15.87 C17.068,15.71 16.612,15.61 16.131,15.61 C14.041,15.61 12.348,17.3 12.348,19.39 C12.348,21.48 14.041,23.18 16.131,23 L23.695,23 C27.176,23.18 30,20.35 30,16.87 C30,13.39 27.176,10.57 23.695,10.57 L23.695,10.57 Z" id="Stroke-55" stroke="#EEEEEE" stroke-width="2" sketch:type="MSShapeGroup"></path>
        <path d="M8,45.3 C8,45.3 13.609,31.56 19.913,31.56 C26.217,31.56 31.261,39.13 31.261,39.13 L38.863,26.1 C39.621,24.8 41.01,24 42.52,24 C44.12,24 45.58,24.9 46.3,26.34 L56,45.3" id="Stroke-56" stroke="#EEEEEE" stroke-width="2" stroke-linejoin="round" sketch:type="MSShapeGroup"></path>
    </g>
</svg>
