<svg xmlns="http://www.w3.org/2000/svg" viewBox="0 0 21 32"><path d="M16 16.57v1.144q0 .25-.16.41t-.412.162h-4v4q0 .25-.16.41t-.412.162H9.713q-.25 0-.41-.16t-.162-.412v-4h-4q-.25 0-.41-.16t-.16-.412V16.57q0-.25.16-.41t.41-.16h4v-4q0-.25.162-.412t.41-.16h1.144q.25 0 .41.16t.162.41v4h4q.25 0 .41.162t.162.41zm2.286 6.86V10.857q0-.714-.5-1.214t-1.214-.5H4.002q-.715 0-1.215.5t-.5 1.214v12.57q0 .715.5 1.215t1.214.5h12.572q.714 0 1.214-.5t.5-1.214zm2.285-12.573v12.57q0 1.644-1.17 2.822t-2.83 1.178H4q-1.66 0-2.83-1.18T0 23.43v-12.57q0-1.662 1.17-2.83T4 6.857h12.57q1.662 0 2.83 1.17t1.17 2.83z"/></svg>