<svg viewBox="0 0 60 60" xmlns="http://www.w3.org/2000/svg"><title>Slice 1</title><g fill="none" stroke="#eee" stroke-width="2"><path d="M1 1h58v58H1V1zm58 44H1h58zM23.695 10.57c-3.14 0-5.723 2.3-6.203 5.3-.424-.16-.88-.26-1.36-.26-2.09 0-3.784 1.69-3.784 3.78S14.04 23.18 16.13 23h7.565c3.48.18 6.305-2.65 6.305-6.13s-2.824-6.3-6.305-6.3z"/><path d="M8 45.3s5.61-13.74 11.913-13.74c6.304 0 11.348 7.57 11.348 7.57l7.603-13.03c.758-1.3 2.147-2.1 3.657-2.1 1.6 0 3.06.9 3.78 2.34L56 45.3" stroke-linejoin="round"/></g></svg>