<svg viewBox="0 0 28 28" xmlns="http://www.w3.org/2000/svg"><title>Slice 1</title><path d="M20.518 18.036c0-.31-.113-.577-.34-.804L16.95 14l3.23-3.232c.227-.226.34-.494.34-.804 0-.32-.113-.595-.34-.82l-1.606-1.608c-.226-.226-.5-.34-.82-.34-.31 0-.578.114-.805.34l-3.232 3.232-3.232-3.232c-.226-.226-.494-.34-.804-.34-.322 0-.596.114-.822.34L7.25 9.143c-.225.226-.338.5-.338.82 0 .31.113.578.34.805L10.48 14l-3.23 3.232c-.227.226-.34.494-.34.804 0 .32.113.595.34.82l1.606 1.608c.226.226.5.34.82.34.31 0 .578-.114.805-.34l3.232-3.232 3.232 3.232c.226.226.494.34.804.34.322 0 .596-.114.822-.34l1.607-1.607c.225-.226.338-.5.338-.82zM27.428 14c0 2.488-.612 4.783-1.838 6.884-1.226 2.1-2.89 3.765-4.99 4.99-2.102 1.227-4.397 1.84-6.885 1.84-2.488 0-4.783-.613-6.884-1.84-2.1-1.225-3.764-2.89-4.99-4.99C.614 18.784 0 16.488 0 14c0-2.488.614-4.783 1.84-6.884 1.226-2.1 2.89-3.765 4.99-4.99C8.933.898 11.228.285 13.716.285c2.488 0 4.783.613 6.884 1.84 2.1 1.225 3.764 2.89 4.99 4.99 1.226 2.1 1.84 4.396 1.84 6.884z" fill="#c30"/></svg>